<svg width="12" height="18" viewBox="0 0 12 18" fill="none" xmlns="http://www.w3.org/2000/svg">
<path d="M10.9461 8.40938L0.38047 0.157031C0.352862 0.135296 0.319683 0.121788 0.284744 0.118059C0.249804 0.114331 0.214522 0.120532 0.182948 0.135952C0.151375 0.151371 0.124791 0.175384 0.10625 0.205231C0.0877078 0.235078 0.0779604 0.26955 0.0781271 0.304687V2.11641C0.0781271 2.23125 0.132033 2.34141 0.221096 2.41172L8.65859 9L0.221096 15.5883C0.12969 15.6586 0.0781271 15.7688 0.0781271 15.8836V17.6953C0.0781271 17.8523 0.258596 17.9391 0.38047 17.843L10.9461 9.59063C11.0359 9.52058 11.1085 9.43097 11.1585 9.32863C11.2085 9.22628 11.2344 9.11389 11.2344 9C11.2344 8.88611 11.2085 8.77372 11.1585 8.67137C11.1085 8.56903 11.0359 8.47942 10.9461 8.40938Z" fill="black"/>
</svg>
